<svg display="none" xmlns="http://www.w3.org/2000/svg">
    <symbol id="notifications" viewBox="0 0 448 512" width="28" height="32">
        <path 
            d="M439.39 
                362.29c-19.32-20.76-55.47-51.99-55.47-154.29c0-77.7-54.48-139.9-127.94-155.16V32c0-17.67-14.32-32-31.98-32s-31.98 
                14.33-31.98 32v20.84C118.56 68.1 64.08 130.3 64.08 208c0 102.3-36.15 133.53-55.47 154.29c-6 6.45-8.66 14.16-8.61 
                21.71c.11 16.4 12.98 32 32.1 32h383.8c19.12 0 32-15.6 32.1-32c.05-7.55-2.61-15.27-8.61-21.71M67.53 368c21.22-27.97 
                44.42-74.33 44.53-159.42c0-.2-.06-.38-.06-.58c0-61.86 50.14-112 112-112s112 50.14 112 112c0 .2-.06.38-.06.58c.11 85.1 
                23.31 131.46 44.53 159.42zM224 512c35.32 0 63.97-28.65 63.97-64H160.03c0 35.35 28.65 64 63.97 64" 
        />
    </symbol>
     <symbol id="chat" viewBox="0 0 512 512" width="32" height="32">
        <path
            d="M448 0H64C28.7 0 0 28.7 0 64v288c0 35.3 28.7 64 64 64h96v84c0 7.1 5.8 12 12 12c2.4 0 4.9-.7 7.1-2.4L304 
                416h144c35.3 0 64-28.7 64-64V64c0-35.3-28.7-64-64-64m16 352c0 8.8-7.2 16-16 16H288l-12.8 9.6L208 
                428v-60H64c-8.8 0-16-7.2-16-16V64c0-8.8 7.2-16 16-16h384c8.8 0 16 7.2 16 16z" 
        />
    </symbol>
    <symbol id="auth" viewBox="0 0 512 512" width="32" height="32">
        <g>
            <path 
                d="m437.019 74.98c-48.352-48.351-112.639-74.98-181.019-74.98s-132.667 26.629-181.02 
                    74.98c-48.351 48.353-74.98 112.64-74.98 181.02s26.628 132.667 74.98 181.02c48.353 48.351
                    112.64 74.98 181.02 74.98s132.668-26.629 181.02-74.98c48.351-48.353 74.98-112.64
                    74.98-181.02s-26.629-132.667-74.981-181.02zm-319.202 359.724c19.683-59.009 75.183-99.437 138.183-99.437s118.501
                    40.43 138.182 99.438c-38.232 29.63-86.18 47.295-138.182 
                    47.295s-99.951-17.665-138.183-47.296zm300.338-21.455c-26.927-64.621-90.521-107.982-162.155-107.982-71.635 
                    0-135.228 43.36-162.156 107.981-39.49-40.711-63.844-96.185-63.844-157.248 0-124.617 101.383-226 226-226s226 
                    101.383 226 226c0 61.063-24.354 116.538-63.845 157.249z"
            />
            <path
                d="m256 80.334c-52.567 0-95.333 42.767-95.333 95.333s42.766 95.333 95.333 95.333 95.334-42.767 
                95.334-95.333-42.767-95.333-95.334-95.333zm0 160.666c-36.025 0-65.333-29.309-65.333-65.333s29.308-65.333 
                65.333-65.333 65.334 29.309 65.334 65.333-29.309 65.333-65.334 65.333z"
                />
        </g>
    </symbol>
    <symbol id="main-page" width="24" height="26" viewBox="0 0 24 26" fill="none">
        <g clipPath="url(#clip0_1_13)">
            <path
                stroke="#2A52BE" strokeWidth="2" strokeLinecap="round" strokeLinejoin="round"
                d="M4.17734 25C2.60668 25 1.33334 23.6933 1.33334 22.08V10.344C1.33334 9.45734 1.72668 8.61734 2.40001 8.064L10.2227
                    1.64C10.7225 1.22611 11.3511 0.999634 12 0.999634C12.6489 0.999634 13.2775 1.22611 13.7773 1.64L21.5987 
                    8.064C22.2733 8.61734 22.6667 9.45734 22.6667 10.344V22.08C22.6667 23.6933 21.3933 25 19.8227 25H4.17734Z"
            />
            <path
                stroke="#2A52BE" strokeWidth="2" strokeLinecap="round" strokeLinejoin="round"
                d="M8.66669 25V17.6667C8.66669 16.9594 8.94764 16.2811 9.44774 15.781C9.94783 15.281 10.6261 15 11.3334 
                    15H12.6667C13.3739 15 14.0522 15.281 14.5523 15.781C15.0524 16.2811 15.3334 16.9594 15.3334 17.6667V25"
            />
        </g>
        <defs>
            <clipPath id="clip0_1_13">
                <rect fill="#2A52BE" width="24" height="26"/>
            </clipPath>
        </defs>
     </symbol>

    <symbol id="create-page" width="26" height="26" viewBox="0 0 26 26">
        <g clipPath="url(#clip0_1_14)">
            <path
                fill="white"
                d="M15.4375 17.875V16.25H16.25V10.5625H15.4375V8.9375H18.6875V10.5625H17.875V16.25H18.6875V17.875H15.4375ZM12.5938
                    17.875H14.2188L11.375 8.9375H8.9375L6.09619 17.875H7.72119L8.2095 16.25H12.0916L12.5938 17.875ZM8.69863 
                    14.625L10.0214 10.2286L10.2294 10.2261L11.5895 14.625H8.69863ZM26 
                    3.25H22.75V0H21.125V3.25H17.875V4.875H21.125V8.125H22.75V4.875H26V3.25ZM24.375 9.75H26V11.375H24.375V9.75ZM14.625 
                    0H16.25V1.625H14.625V0Z"
            />
            <path fill="white" d="M26 26H0V0H11.375V1.625H1.625V24.375H24.375V14.625H26V26Z"/>
        </g>
        <defs>
            <clipPath id="clip0_1_14">
                <rect fill="white" width="26" height="26"/>
            </clipPath>
        </defs>
    </symbol>
    <symbol id="popular-page"  width="14" height="26" viewBox="0 0 14 26">
        <g clipPath="url(#clip0_1_7)">
            <path fill="#F4A900" d="M5.83333 16.1379H0L8.16667 -0.597687V8.96553H14L5.83333 25.7012V16.1379Z"/>
        </g>
        <defs>
            <clipPath id="clip0_1_7">
                <rect fill="#F4A900" width="14" height="26"/>
                </clipPath>
        </defs>
    </symbol>
    <symbol id="categories-page" width="29" height="25" viewBox="0 0 29 25">
        <path 
            stroke="#9B2D30" strokeWidth="2" strokeLinecap="round" strokeLinejoin="round" 
            d="M1 2H27M4 7.25H24M7 12.5H21M1 23H27M4 17.75H24"
        />
    </symbol>
    <symbol id="git-hub" width="50" height="50" viewBox="0 0 512 512">
        <path
            fill="white"
            d="m256 0c-140.699219 0-256 116.300781-256 257 0 139.882812 114.25 255 256 255 141.574219 0 256-114.945312 256-255
                0-140.699219-115.300781-257-256-257zm45 477.5c-14.398438 
                3-29.699219 4.5-45 4.5s-30.601562-1.5-45-4.5v-70.199219c0-16.800781 4.5-22.800781 10.5-30.902343 3.054688-3.492188 
                4.898438-6.625 18.597656-27.296876l-23.097656-3.601562c-59.402344-8.699219-82.800781-39.601562-92.101562-63.601562-12-32.097657-5.699219-72.300782 
                15.902343-97.796876 3.300781-3.902343 6-10.503906 3.601563-17.402343-4.503906-13.800781-3.902344-35.699219-.902344-44.101563 
                15.90625 2.273438 32.261719 13.667969 45.902344 21.902344 6.285156 3.667969 9.582031 2.699219 12.597656 3 10.960938-2.28125
                28.058594-7.800781 54.300781-7.800781 16.199219 0 33.300781 2.398437 50.101563 7.199219 3.003906-.070313 7.832031 2.484374 
                16.199218-2.398438 14.257813-8.6875 30.058594-19.691406 45.898438-21.902344 3 8.402344 3.601562 30.300782-.898438 
                44.101563-2.402343 6.898437.296876 13.5 3.601563 17.402343 21.597656 25.5 27.898437 65.699219 15.898437 97.796876-9.300781 
                24-32.699218 54.902343-92.101562 63.601562l-23.097656 3.601562c14.160156 21.367188 15.652344 23.929688 18.601562 27.296876 
                5.996094 8.101562 10.496094 14.101562 10.496094 30.902343zm30-8.699219v-61.5c0-17.101562-3.601562-28.5-8.402344-36.902343 
                45.601563-12.296876 78.003906-39.300782 92.402344-78 15.300781-40.796876 8.402344-89.398438-17.101562-123 4.503906-20.097657 
                4.503906-52.199219-6.296876-67.199219-4.800781-6.597657-11.402343-10.199219-19.800781-10.199219-.300781 0-.300781 0-.300781 
                0-23.261719 1.257812-41.570312 12.972656-61.199219 24.898438-18-4.800782-36.300781-7.199219-54.601562-7.199219-18.597657 
                0-37.199219 2.699219-53.695313 7.199219-20.664062-12.460938-38.796875-23.671876-62.703125-24.898438-7.5 0-14.101562 
                3.601562-18.902343 10.199219-10.796876 15-10.796876 47.101562-6.296876 67.199219-25.503906 33.601562-32.402343 82.5-17.101562 
                123 14.398438 38.699218 46.800781 65.703124 92.402344 78-3.722656 6.511718-6.667969 14.914062-7.828125 26.285156-9.210938 
                3.175781-17.199219 4.210937-24.628907 2.027344-7.835937-2.316407-13.941406-7.546876-19.246093-16.46875-11.914063-20.015626-32.207031-36.355469-55.3125-34.230469l2.636719 
                29.882812c10.699218-.980469 21.347656 10.339844 26.878906 19.671875 9.125 15.367188 21.417968 25.445313 36.546875 29.914063 
                11.230469 3.308593 21.496093 3.230469 32.550781.871093v40.449219c-87.300781-30.601562-151-114-151-211.800781 0-124.199219 
                101.800781-227 226-227s226 102.800781 226 227c0 97.800781-63.699219 181.199219-151 211.800781zm0 0" 
        />
    </symbol>
    <symbol id="show-psd" width="28px" height="28px" viewBox="0 0 24 24">
        <g fill="none" stroke-linecap="round" stroke-linejoin="round" stroke-width="2">
            <path 
                d="M3.587 13.779c1.78 1.769 4.883 4.22 8.413 4.22s6.634-2.451 
                8.413-4.22c.47-.467.705-.7.854-1.159c.107-.327.107-.913 0-1.24c-.15-.458-.385-.692-.854-1.159C18.633 8.452 
                15.531 6 12 6c-3.53 0-6.634 2.452-8.413 4.221c-.47.467-.705.7-.854 1.159c-.107.327-.107.913 0 
                1.24c.15.458.384.692.854 1.159"
            />
            <path d="M10 12a2 2 0 1 0 4 0a2 2 0 0 0-4 0"
            />
        </g>
    </symbol>
    <symbol id="hidden-psd" width="32" height="32" viewBox="0 0 24 24">
        <path
            fillRule="evenodd" clipRule="evenodd" 
            d="M11.254 13.9749V17H12.754V13.9672C14.2271 13.846 15.6039 13.3931 16.8015 12.6851L18.3545 
                15.375L19.6535 14.625L18.0318 11.816C19.1746 10.8606 20.1061 9.61996 20.6917 8.2749L19.3164
                7.67617C18.7623 8.94881 17.8318 10.1208 16.7002 10.9556C16.673 10.9757 16.6456 10.9957 16.618 
                11.0155C15.3326 11.9381 13.7363 12.4901 12.0009 12.4999C12.0006 12.4999 12.0002 12.4999 11.9999 
                12.4999L11.9542 12.5C11.9538 12.5 11.9535 12.5 11.9532 12.5C10.229 12.4998 8.64029 11.9643 7.35483
                11.0613C6.16376 10.2246 5.23552 9.07427 4.69969 7.74421L3.30835 8.30472C3.87054 9.70022 4.7854 
                10.922 5.94395 11.872L4.3545 14.625L5.65354 15.375L7.18138 12.7287C8.38861 13.4274 9.77393 
                13.8685 11.254 13.9749Z" 
        />
    </symbol>
    <symbol id="download-btn" width="32" height="32" viewBox="0 0 24 24">
        <path fill="none" strokeWidth="2"
            d="M4 16v1a3 3 0 0 0 3 3h10a3 3 0 0 0 3-3v-1m-4-4l-4 4m0 0l-4-4m4 4V4"
        />
    </symbol>
    <symbol id="like" width="32" height="32" viewBox="0 0 32 32">
        <path
            strokeWidth="3" strokeLinecap="round" strokeLinejoin="round"
            d="M6 6c4.665-2.332 8.5.5 10 2.5c1.5-2 5.335-4.832 10-2.5c6 3 4.5 10.5 0 
                15c-2.196 2.196-6.063 6.063-8.891 8.214a1.76 1.76 0 0 1-2.186-.041C12.33 27.08 8.165 
                23.165 6 21C1.5 16.5 0 9 6 6"
        /> 
    </symbol>
    <symbol id="dislike" width="32" height="32" viewBox="0 0 32 32">
        <g strokeWidth="3" strokeLinecap="round" strokeLinejoin="round">
            <path 
                d="M15.391 25.744a1 1 0 0 0-.203.607l-.02 3.075a.577.577 0 0 1-.914.465C10.79 27.453 
                    3.83 21.9 2.256 15.77c-1.188-4.633 1.758-10.844 8.859-9.61c1.737.303 3.403 1.528 4.144 
                    2.68c.092.132.264.598.264.598q.007.014.01.025l.01.025l1.393 
                    3.723c.121.334.07.708-.153.981l-.63.8l-.03.035l-.03.035l-1.707 1.78c-.305.324-.366.8-.153 
                    1.184l2.631 4.795a1 1 0 0 1-.08 1.093z"
            />
            <path 
                d="M16.929 8.32c.935-.979 2.188-1.876 3.821-2.159c7.201-1.241 10.18 4.954 8.999 9.575c-1.603 
                6.175-8.752 11.754-12.224 14.156a.585.585 0 0 
                1-.925-.474l.02-2.432c0-.222.073-.434.206-.605l1.798-2.331a.98.98 0 0 0 
                .082-1.09l-2.578-4.641a.99.99 0 0 1 
                .154-1.18l.75-.777q.015-.016.03-.036l.031-.035l1.418-1.756c.216-.272.277-.645.154-.978l-1.828-4.833a.4.4 0 
                0 1-.031-.152c0-.15.123-.252.123-.252"
            />
          </g>
    </symbol>
    <symbol id="ok-svg" fill="none" width="28px" height="28px" viewBox="0 0 24 24">
        <path
            fill="#14992a" stroke="none" 
            d="M16.707 5.293a1 1 0 0 1 0 1.414l-8 8a1 1 0 0 1-1.414 0l-4-4a1 1 0 0 1 1.414-1.414L8 12.586l7.293-7.293a1 1 0 0 1 1.414 0"
        />
    </symbol>
    <symbol id="enter-svg" fill="none" width="28px" height="28px" viewBox="0 0 24 24">
        <path
            strokeWidth="2" strokeLinecap="round" strokeLinejoin="round" fill="none"
            d="M20 7V8.2C20 9.88016 20 10.7202 19.673 11.362C19.3854 11.9265 18.9265 12.3854 18.362 12.673C17.7202 13 16.8802 13 15.2 13H4M4 13L8 9M4 13L8 17" 
        />
    </symbol>
    <symbol id="addUser-svg" width="32" height="32" viewBox="0 0 24 24">
        <path
            fill="none" strokeLinejoin="round" strokeWidth="1"
            d="M18 14v-3h-3V9h3V6h2v3h3v2h-3v3zm-9-2q-1.65 0-2.825-1.175T5 8t1.175-2.825T9 4t2.825 1.175T13 8t-1.175 2.825T9 12m-8 8v-2.8q0-.85.438-1.562T2.6 
            14.55q1.55-.775 3.15-1.162T9 13t3.25.388t3.15 1.162q.725.375 1.163 1.088T17 17.2V20z"
        />
    </symbol>
    <symbol id="copy-svg" width="20px" height="20px" viewBox="0 0 24 24">
        <g>
            <path 
                d="M6.25 5.25C6.25 2.50265 8.43733 0.25 11.1667 0.25H17.8333C20.5627 0.25 22.75 2.50265 22.75 
                    5.25V13.75C22.75 16.4974 20.5627 18.75 17.8333 18.75C17.4191 18.75 17.0833 18.4142 17.0833 18C17.0833 
                    17.5858 17.4191 17.25 17.8333 17.25C19.7064 17.25 21.25 15.6971 21.25 13.75V5.25C21.25 3.30293 19.7064 
                    1.75 17.8333 1.75H11.1667C9.29363 1.75 7.75 3.30293 7.75 5.25C7.75 5.66421 7.41421 6 7 6C6.58579 6 
                    6.25 5.66421 6.25 5.25Z"
            />
            <path 
                d="M1.25 10.25C1.25 7.50265 3.43733 5.25 6.16667 5.25H12.8333C15.5627 5.25 17.75 7.50265 17.75 
                    10.25V18.75C17.75 21.4974 15.5627 23.75 12.8333 23.75H6.16667C3.43733 23.75 1.25 21.4974 1.25 
                    18.75V10.25ZM6.16667 6.75C4.29363 6.75 2.75 8.30293 2.75 10.25V18.75C2.75 20.6971 4.29363 22.25 
                    6.16667 22.25H12.8333C14.7064 22.25 16.25 20.6971 16.25 18.75V10.25C16.25 8.30293 14.7064 6.75 12.8333 
                    6.75H6.16667Z"
            />
        </g>
    </symbol>
    <symbol id="loader" fill="#000000" width="300px" height="300px" viewBox="0 0 256.00098 256.00098">
        <path 
            d="M128.001,76a52,52,0,1,0,52,52A52.05895,52.05895,0,0,0,128.001,76Zm0,96a44,44,0,1,1,44-44A44.04978,
                44.04978,0,0,1,128.001,172Zm103.606-19.19434-15.70459-20.93652c.07276-2.56543.01953-5.86182-.02246-7.709l15.72022-20.95948a3.99977,
                3.99977,0,0,0,.66162-3.44238,107.44341,107.44341,0,0,0-10.55664-25.51025,4.00044,4.00044,0,0,0-2.90332-1.96778L192.915,
                68.5835c-1.74854-1.9087-3.59033-3.75049-5.49854-5.49854l-3.6958-25.87549a3.99946,3.99946,0,0,0-1.96582-2.90234A107.46494,
                107.46494,0,0,0,156.251,23.7334a3.9984,3.9984,0,0,0-3.44385.66162L131.88867,40.08545c-2.58594-.11328-5.19043-.11328-7.77637,
                0L103.20215,24.40186a3.99975,3.99975,0,0,0-3.44238-.66163A107.43015,107.43015,0,0,0,74.24854,34.29736a3.99987,
                3.99987,0,0,0-1.96729,2.90284L68.585,63.08643c-1.90869,1.74853-3.75049,3.59033-5.499,5.499L37.21045,
                72.28076a4.00233,4.00233,0,0,0-2.90234,1.96631A107.45352,107.45352,0,0,0,23.73437,99.75146a4.00034,4.00034,0,0,
                0,.66163,3.44385l15.70459,20.93653c-.07276,2.56543-.01954,5.86181.02246,7.709L24.40283,152.80029a3.9998,3.9998,0,
                0,0-.66162,3.44239,107.44358,107.44358,0,0,0,10.55664,25.51025,4.0004,4.0004,0,0,0,2.90332,1.96777l25.88672,
                3.69678c1.74854,1.90869,3.59033,3.75049,5.49854,5.49854l3.6958,25.87548a3.99943,3.99943,0,0,0,1.96582,2.90235,
                107.46536,107.46536,0,0,0,25.5039,10.57373,3.99865,3.99865,0,0,0,3.44385-.66162l20.91846-15.69043c2.58594.11328,
                5.19043.11328,7.77636,0l20.91016,15.68359a3.99818,3.99818,0,0,0,3.44238.66162,107.42974,107.42974,0,0,0,
                25.51123-10.55713,3.99985,3.99985,0,0,0,1.96729-2.90283l3.69971-25.90918c1.86523-1.76269,4.1582-4.13135,
                5.43506-5.4668l25.936-3.70459a4.00231,4.00231,0,0,0,2.90234-1.9663,107.453,107.453,0,0,0,10.57373-25.5044A4.00032,
                4.00032,0,0,0,231.60693,152.80566Zm-15.89941,23.27393-25.35889,3.62207a4.00012,4.00012,0,0,0-2.34765,
                1.21875c-.0459.04883-4.59473,4.87744-6.98926,6.99756a4.00188,4.00188,0,0,0-1.30811,2.42969l-3.62256,
                25.36718a99.46249,99.46249,0,0,1-20.05908,8.29981l-20.4917-15.36914a3.99365,3.99365,0,0,0-2.64257-.793,80.73137,
                80.73137,0,0,1-9.77051,0,3.99956,3.99956,0,0,0-2.64258.793l-20.499,15.376a99.48407,99.48407,0,0,
                1-20.05274-8.31494l-3.62207-25.35742a3.9995,3.9995,0,0,0-1.3081-2.42969,80.77735,80.77735,0,0,1-6.90918-6.90869,
                3.99933,3.99933,0,0,0-2.4292-1.3081l-25.36719-3.62256a99.46525,99.46525,0,0,1-8.29981-20.0586l15.37012-20.49316a3.99957,
                3.99957,0,0,0,.79785-2.52148c-.002-.0669-.20019-6.69825-.00586-9.89063a4.00065,4.00065,0,0,0-.793-2.64307l-15.376-20.49853a99.49477,
                99.49477,0,0,1,8.31494-20.05322l25.35791-3.6211a4.00129,4.00129,0,0,0,2.4292-1.30859A80.70375,80.70375,0,0,1,74.99121,
                68.083a4.00194,4.00194,0,0,0,1.30811-2.42969l3.62255-25.36719A99.46278,99.46278,0,0,1,99.981,31.98633l20.4917,
                15.36914a4.01364,4.01364,0,0,0,2.64257.793,80.72728,80.72728,0,0,1,9.77051,0,4.00878,4.00878,0,0,0,
                2.64258-.793l20.499-15.376a99.48407,99.48407,0,0,1,20.05274,8.31494l3.62207,25.35743a3.9994,3.9994,0,0,0,
                1.3081,2.42968,80.78169,80.78169,0,0,1,6.90918,6.90869,3.99939,3.99939,0,0,0,2.4292,1.30811l25.36719,3.62256a99.46513,
                99.46513,0,0,1,8.2998,20.05859l-15.37011,20.49317a3.99954,3.99954,0,0,0-.79785,2.52148c.002.0669.20019,6.69824.00586,
                9.89063a4.00063,4.00063,0,0,0,.793,2.64306l15.376,20.49854A99.49477,99.49477,0,0,1,215.70752,176.07959Z"
        />
    </symbol>
    <symbol id="sun-svg" width="32" height="32" viewBox="0 0 24 24">
        <path
            fill="#F4A900"
            d="m6.76 4.84l-1.8-1.79l-1.41 1.41l1.79 1.79zM4 10.5H1v2h3zm9-9.95h-2V3.5h2zm7.45 3.91l-1.41-1.41l-1.79 
                1.79l1.41 1.41zm-3.21 13.7l1.79 1.8l1.41-1.41l-1.8-1.79zM20 10.5v2h3v-2zm-8-5c-3.31 0-6 2.69-6 6s2.69 6 6 
                6s6-2.69 6-6s-2.69-6-6-6m-1 16.95h2V19.5h-2zm-7.45-3.91l1.41 1.41l1.79-1.8l-1.41-1.41z"
        />
    </symbol>
    <symbol id="night-svg" width="32" height="32" viewBox="0 0 24 24">
        <path
            fill="currentColor"
                d="M15.5 22c1.05 0 2.05-.16 3-.46c-4.06-1.27-7-5.06-7-9.54s2.94-8.27 7-9.54c-.95-.3-1.95-.46-3-.46c-5.52 
                0-10 4.48-10 10s4.48 10 10 10"
        />
    </symbol>
</svg>
